<?xml version="1.0" encoding="UTF-8"?>
<svg version="1.1" xmlns="http://www.w3.org/2000/svg" width="423" height="301">
<path d="M0 0 C1.01642578 -0.02900391 2.03285156 -0.05800781 3.08007812 -0.08789062 C16.59708159 -0.19988619 26.85794652 5.4533465 36.9375 13.98046875 C38.1875 15.3125 38.1875 15.3125 38.1875 17.3125 C38.84532471 17.03575439 39.50314941 16.75900879 40.1809082 16.47387695 C53.96611332 10.71355774 67.54017001 5.38999752 82.1875 2.3125 C83.8890625 1.94705078 83.8890625 1.94705078 85.625 1.57421875 C93.16668732 0.24173313 100.73080444 0.05713204 108.375 -0.0625 C109.37297607 -0.08868408 110.37095215 -0.11486816 111.39916992 -0.1418457 C121.75831298 -0.16494397 130.88849688 3.11429055 139.1875 9.3125 C139.76242187 9.92738281 140.33734375 10.54226563 140.9296875 11.17578125 C143.00507482 13.25562219 144.37888714 14.40049486 147.1875 15.3125 C150.98054328 14.41029419 154.35372817 12.88177978 157.87109375 11.24609375 C175.12112738 3.23929317 194.26595233 0.12806692 213.125 -0.125 C214.15520264 -0.14739746 215.18540527 -0.16979492 216.24682617 -0.19287109 C228.95732851 -0.15396035 240.62327505 4.85020401 249.703125 13.7890625 C258.24989159 23.60935391 262.33609856 34.27157268 262.5625 47.125 C262.59988281 47.88748047 262.63726562 48.64996094 262.67578125 49.43554688 C262.9066176 65.17089124 253.55031014 81.84667112 247.875 96.1875 C246.97838992 98.46189899 246.08223758 100.73647848 245.18652344 103.01123047 C243.37805855 107.60369133 241.5681452 112.19557708 239.75732422 116.78710938 C236.1282727 125.99515557 232.53135982 135.21567583 228.9375 144.4375 C228.28593899 146.10833668 227.63432768 147.77915375 226.98266602 149.44995117 C225.69297555 152.75674979 224.40350678 156.0636347 223.11425781 159.37060547 C217.50158573 173.7670132 211.88449959 188.16169872 206.26416016 202.55511475 C205.52809348 204.44022156 204.79209398 206.32535462 204.05615234 208.21051025 C199.4443574 220.02375192 194.82621575 231.8344353 190.19137573 243.63865662 C188.36602397 248.29150936 186.55211452 252.94831739 184.76095581 257.61444092 C183.66113505 260.47523024 182.5478165 263.33077103 181.4375 266.1875 C180.90116943 267.610625 180.90116943 267.610625 180.35400391 269.0625 C178.07210794 274.88399567 175.19906691 279.52167788 171.1875 284.3125 C170.55585938 285.07820313 169.92421875 285.84390625 169.2734375 286.6328125 C161.63183014 294.69313807 150.95588627 300.07477827 139.76953125 300.6484375 C124.2341587 300.94458054 112.11219494 297.82969275 100.0390625 287.46875 C92.20987311 279.91806932 85.59124907 271.07684677 79.1875 262.3125 C77.38467507 265.0167374 76.20790237 267.46475846 74.9375 270.4375 C68.28880576 285.10714805 59.29061897 293.46939239 44.1875 299.3125 C33.29174185 302.48450634 19.16091675 301.56253291 9.1875 296.3125 C8.36507812 295.91160156 7.54265625 295.51070313 6.6953125 295.09765625 C-4.03405165 289.33187645 -11.55608731 279.91805685 -18.875 270.4375 C-19.43550049 269.71199951 -19.99600098 268.98649902 -20.57348633 268.23901367 C-23.21852898 264.72789151 -25.47225235 261.55800499 -26.8125 257.3125 C-27.4725 257.3125 -28.1325 257.3125 -28.8125 257.3125 C-28.93496094 258.01117188 -29.05742187 258.70984375 -29.18359375 259.4296875 C-32.08671598 272.73716706 -39.30664906 285.6355512 -50.8125 293.3125 C-63.83428524 300.2063863 -76.59325452 302.56148964 -91.22265625 299.62890625 C-93.89449009 298.70241423 -96.31149357 297.62903639 -98.8125 296.3125 C-99.63492188 295.91160156 -100.45734375 295.51070313 -101.3046875 295.09765625 C-128.71817454 280.36610948 -146.07161432 243.6716314 -154.86499023 215.23168945 C-158.51084315 202.91337717 -160.9066559 190.30140332 -161.05078125 177.4296875 C-161.06052979 176.7012413 -161.07027832 175.9727951 -161.08032227 175.22227478 C-161.25430183 158.85177616 -160.92501913 143.26583018 -156.8125 127.3125 C-156.63058105 126.56597168 -156.44866211 125.81944336 -156.26123047 125.05029297 C-149.33938376 97.04743322 -134.17966077 71.35877578 -114.19824219 50.74511719 C-112.95499382 49.4598139 -111.73014896 48.15676923 -110.5078125 46.8515625 C-82.62329344 17.7413503 -40.00729381 0.37624414 0 0 Z " fill="#27A2FC" transform="translate(160.8125,-0.3125)"/>
<path d="M0 0 C1.01642578 -0.02900391 2.03285156 -0.05800781 3.08007812 -0.08789062 C16.5390423 -0.19940531 26.78454783 5.40796173 36.83984375 13.8828125 C38.1875 15.3125 38.1875 15.3125 39.1875 18.3125 C38.69983154 18.60382812 38.21216309 18.89515625 37.7097168 19.1953125 C12.36798873 34.38065138 -9.58392926 52.25147067 -25.8125 77.3125 C-26.1822998 77.86856934 -26.55209961 78.42463867 -26.93310547 78.99755859 C-49.64201068 113.33184695 -57.14714519 157.91805658 -49.27001953 198.08544922 C-45.70767695 215.42573151 -40.74896232 238.69481412 -29.01171875 252.41796875 C-27.8125 254.3125 -27.8125 254.3125 -27.96484375 257.11328125 C-31.67621715 271.12072278 -38.42206813 285.04533997 -50.8125 293.3125 C-63.83428524 300.2063863 -76.59325452 302.56148964 -91.22265625 299.62890625 C-93.89449009 298.70241423 -96.31149357 297.62903639 -98.8125 296.3125 C-99.63492188 295.91160156 -100.45734375 295.51070313 -101.3046875 295.09765625 C-128.71817454 280.36610948 -146.07161432 243.6716314 -154.86499023 215.23168945 C-158.51084315 202.91337717 -160.9066559 190.30140332 -161.05078125 177.4296875 C-161.06052979 176.7012413 -161.07027832 175.9727951 -161.08032227 175.22227478 C-161.25430183 158.85177616 -160.92501913 143.26583018 -156.8125 127.3125 C-156.63058105 126.56597168 -156.44866211 125.81944336 -156.26123047 125.05029297 C-149.33938376 97.04743322 -134.17966077 71.35877578 -114.19824219 50.74511719 C-112.95499382 49.4598139 -111.73014896 48.15676923 -110.5078125 46.8515625 C-82.62329344 17.7413503 -40.00729381 0.37624414 0 0 Z " fill="#82E4FE" transform="translate(160.8125,-0.3125)"/>
<path d="M0 0 C1.01642578 -0.02900391 2.03285156 -0.05800781 3.08007812 -0.08789062 C17.26477673 -0.2054184 27.95649104 6.00867622 38.1875 15.3125 C36.90806149 19.15081552 35.09616543 19.62135337 31.61425781 21.36865234 C30.85467773 21.74199707 30.09509766 22.1153418 29.3125 22.5 C17.51264596 28.53730578 7.68261352 36.38314406 -2.29345703 45.01831055 C-3.8112327 46.31142029 -5.36478666 47.56213957 -6.91796875 48.8125 C-11.52301388 52.78986692 -15.06915924 57.53838425 -18.8125 62.3125 C-19.3384375 62.9725 -19.864375 63.6325 -20.40625 64.3125 C-48.00226512 99.88069727 -60.05362621 144.04331228 -55.04443359 188.72387695 C-51.88058358 212.77736044 -43.83291946 234.56715963 -31.41796875 255.39453125 C-29.24461959 259.34463301 -29.58742758 260.988715 -30.8125 265.3125 C-36.19747381 279.37326494 -43.75234688 290.21803328 -57.625 296.75 C-68.49823245 301.51759416 -82.56923342 302.62958956 -93.9375 298.6875 C-95.58577893 297.94551774 -97.21299295 297.15448474 -98.8125 296.3125 C-99.63492188 295.91160156 -100.45734375 295.51070313 -101.3046875 295.09765625 C-117.65204753 286.31285997 -130.84570919 267.71735656 -138.8125 251.3125 C-139.44923269 250.07808755 -140.08876421 248.84511642 -140.73046875 247.61328125 C-161.77458506 206.90776297 -167.01759663 161.2337325 -153.41796875 117.19921875 C-144.51684432 89.55888498 -129.29434853 66.72752357 -108.8125 46.3125 C-108.28527344 45.75046875 -107.75804687 45.1884375 -107.21484375 44.609375 C-80.70492837 16.61490435 -37.95419239 0.35693598 0 0 Z " fill="#0062E8" transform="translate(268.8125,-0.3125)"/>
<path d="M0 0 C2 2 2 2 2 5 C1.34 5 0.68 5 0 5 C0.0721875 6.23234375 0.144375 7.4646875 0.21875 8.734375 C0.73471795 17.83141429 1.16376034 26.88400751 1 36 C0.67 36 0.34 36 0 36 C-1.11014378 28.86336142 -1.14896343 21.83799301 -1.125 14.625 C-1.13080078 12.84416016 -1.13080078 12.84416016 -1.13671875 11.02734375 C-1.13542969 9.89683594 -1.13414063 8.76632813 -1.1328125 7.6015625 C-1.13168457 6.57369629 -1.13055664 5.54583008 -1.12939453 4.48681641 C-1 2 -1 2 0 0 Z " fill="#0E72DA" transform="translate(109,152)"/>
<path d="M0 0 C0.66 0.99 1.32 1.98 2 3 C1.0421975 5.35096976 0.03842565 7.68351201 -1 10 C-1 10.86625 -1 11.7325 -1 12.625 C-1 15.77397406 -2.24974246 17.44754109 -4 20 C-4.66 19.67 -5.32 19.34 -6 19 C-5.18784945 16.39572388 -4.37529393 13.79157532 -3.5625 11.1875 C-3.33240234 10.44951172 -3.10230469 9.71152344 -2.86523438 8.95117188 C-1.9312816 5.95981589 -0.99100896 2.97302688 0 0 Z " fill="#0E6ED7" transform="translate(119,106)"/>
<path d="M0 0 C0.66 0.33 1.32 0.66 2 1 C0.6875 4.4375 0.6875 4.4375 -1 8 C-1.99 8.33 -2.98 8.66 -4 9 C-4.73323796 11.01508358 -4.73323796 11.01508358 -5 13 C-5.66 12.67 -6.32 12.34 -7 12 C-4.69 8.04 -2.38 4.08 0 0 Z " fill="#0A6BDC" transform="translate(134,77)"/>
<path d="M0 0 C0 0.99 0 1.98 0 3 C-2.1875 4.5 -2.1875 4.5 -5 6 C-5.928125 6.556875 -6.85625 7.11375 -7.8125 7.6875 C-8.534375 8.120625 -9.25625 8.55375 -10 9 C-8.59070303 5.52867905 -7.09394917 4.11906726 -3.875 2.25 C-3.15054688 1.82203125 -2.42609375 1.3940625 -1.6796875 0.953125 C-1.12539062 0.63859375 -0.57109375 0.3240625 0 0 Z " fill="#1473E2" transform="translate(185,26)"/>
<path d="M0 0 C0.66 0.33 1.32 0.66 2 1 C1.67 3.31 1.34 5.62 1 8 C0.34 7.34 -0.32 6.68 -1 6 C-1.99 6.495 -1.99 6.495 -3 7 C-3 5.68 -3 4.36 -3 3 C-2.01 3 -1.02 3 0 3 C0 2.01 0 1.02 0 0 Z " fill="#0465DA" transform="translate(237,257)"/>
<path d="M0 0 C0.99 0.33 1.98 0.66 3 1 C4.62323754 4.75907641 5.23994929 7.92086213 5 12 C2.65085508 9.65085508 2.26859643 8.04320554 1.375 4.875 C1.11460938 3.96492187 0.85421875 3.05484375 0.5859375 2.1171875 C0.39257812 1.41851562 0.19921875 0.71984375 0 0 Z " fill="#0A6AD7" transform="translate(116,218)"/>
<path d="M0 0 C1.32 0.33 2.64 0.66 4 1 C1.03 3.475 1.03 3.475 -2 6 C-2.33 5.34 -2.66 4.68 -3 4 C-2.01 2.68 -1.02 1.36 0 0 Z " fill="#74DBFE" transform="translate(150,52)"/>
<path d="M0 0 C0.66 0.33 1.32 0.66 2 1 C1.67 1.99 1.34 2.98 1 4 C-0.65 4.33 -2.3 4.66 -4 5 C-4.33 4.34 -4.66 3.68 -5 3 C-3.35 2.67 -1.7 2.34 0 2 C0 1.34 0 0.68 0 0 Z " fill="#0269DA" transform="translate(305,14)"/>
</svg>
